<svg width="50" height="50" viewBox="0 0 50 50" fill="none" xmlns="http://www.w3.org/2000/svg">
<circle cx="25" cy="25" r="24.5" stroke="#787878"/>
<path d="M33.8639 27.625H15.1322C14.2704 27.625 13.5346 27.3198 12.9249 26.7095C12.3151 26.0991 12.0103 25.3626 12.0103 24.5C12.0103 23.6374 12.3151 22.9009 12.9249 22.2905C13.5346 21.6802 14.2704 21.375 15.1322 21.375H33.8639C34.7257 21.375 35.4615 21.6802 36.0712 22.2905C36.681 22.9009 36.9859 23.6374 36.9859 24.5C36.9859 25.3626 36.681 26.0991 36.0712 26.7095C35.4615 27.3198 34.7257 27.625 33.8639 27.625ZM33.8639 22.9375H22.1566C21.9452 22.9375 21.7623 23.0148 21.6078 23.1694C21.4533 23.3241 21.3761 23.5072 21.3761 23.7188V25.2812C21.3761 25.4928 21.4533 25.6759 21.6078 25.8306C21.7623 25.9852 21.9452 26.0625 22.1566 26.0625H33.8639C34.2867 26.0625 34.6525 25.9119 34.9615 25.6108C35.2704 25.3097 35.4249 24.9435 35.4249 24.5122C35.4249 24.0809 35.2704 23.7106 34.9615 23.4014C34.6525 23.0921 34.2867 22.9375 33.8639 22.9375ZM33.8639 18.25H15.1322C14.2704 18.25 13.5346 17.9448 12.9249 17.3345C12.3151 16.7241 12.0103 15.9876 12.0103 15.125C12.0103 14.2624 12.3151 13.5259 12.9249 12.9155C13.5346 12.3052 14.2704 12 15.1322 12H33.8639C34.7257 12 35.4615 12.3052 36.0712 12.9155C36.681 13.5259 36.9859 14.2624 36.9859 15.125C36.9859 15.9876 36.681 16.7241 36.0712 17.3345C35.4615 17.9448 34.7257 18.25 33.8639 18.25ZM33.8639 13.5625H31.5224C31.3111 13.5625 31.1281 13.6398 30.9737 13.7944C30.8192 13.9491 30.742 14.1322 30.742 14.3438V15.9062C30.742 16.1341 30.8192 16.3213 30.9737 16.4678C31.1281 16.6143 31.3111 16.6875 31.5224 16.6875H33.8639C34.2867 16.6875 34.6525 16.5369 34.9615 16.2358C35.2704 15.9347 35.4249 15.5685 35.4249 15.1372C35.4249 14.7059 35.2704 14.3356 34.9615 14.0264C34.6525 13.7171 34.2867 13.5625 33.8639 13.5625ZM15.1322 30.75H33.8639C34.7257 30.75 35.4615 31.0552 36.0712 31.6655C36.681 32.2759 36.9859 33.0124 36.9859 33.875C36.9859 34.7376 36.681 35.4741 36.0712 36.0845C35.4615 36.6948 34.7257 37 33.8639 37H15.1322C14.2704 37 13.5346 36.6948 12.9249 36.0845C12.3151 35.4741 12.0103 34.7376 12.0103 33.875C12.0103 33.0124 12.3151 32.2759 12.9249 31.6655C13.5346 31.0552 14.2704 30.75 15.1322 30.75ZM26.059 34.6562C26.059 34.8678 26.1363 35.0509 26.2907 35.2056C26.4452 35.3602 26.6281 35.4375 26.8395 35.4375H33.8639C34.2867 35.4375 34.6525 35.2869 34.9615 34.9858C35.2704 34.6847 35.4249 34.3185 35.4249 33.8872C35.4249 33.4559 35.2704 33.0856 34.9615 32.7764C34.6525 32.4671 34.2867 32.3125 33.8639 32.3125H26.8395C26.6281 32.3125 26.4452 32.3898 26.2907 32.5444C26.1363 32.6991 26.059 32.8822 26.059 33.0938V34.6562Z" fill="#787878"/>
</svg>
