<svg width="35" height="41" viewBox="0 0 35 41" fill="none" xmlns="http://www.w3.org/2000/svg">
<path d="M22.2 4H9V32H31L30 13L22.2 4Z" fill="url(#paint0_linear)"/>
<path d="M22.3334 4L31 12.125V32.5C31 34.7091 29.2092 36.5 27 36.5H9.00002C6.79088 36.5 5.00002 34.7091 5.00002 32.5V8C5.00002 5.79086 6.79088 4 9.00002 4H22.3334ZM22.3334 12.125H28.8334L22.3334 6.03125V12.125ZM24.5 26.8719V16.3703C24.5013 16.2608 24.4789 16.1521 24.4342 16.0509C24.3895 15.9496 24.3235 15.8579 24.24 15.7812C24.1685 15.7041 24.0774 15.6451 23.9752 15.6096C23.873 15.5741 23.7629 15.5633 23.655 15.5781C23.655 15.5781 15.0534 17.0203 14.4467 17.1625C13.8184 17.2844 13.6667 17.8125 13.6667 18.2188V25.0641C13.2334 24.8812 12.7567 24.9219 12.3667 24.9219C11.5434 24.9219 10.85 25.1859 10.2867 25.7141C9.72335 26.2625 9.42002 26.8922 9.42002 27.6641C9.42002 28.4156 9.72335 29.0656 10.2867 29.5938C10.85 30.1422 11.5434 30.4062 12.3667 30.4062C13.1034 30.4062 13.8834 30.325 14.4467 29.8781C15.01 29.4109 15.8334 28.5578 15.8334 27.6031V20.8594L22.3334 19.6406V24.3125C20.8817 23.9062 19.7984 24.3938 19.2134 24.9422C18.65 25.4703 18.3684 26.1203 18.3684 26.8719C18.3684 27.6438 18.65 28.2734 19.2134 28.8219C19.7984 29.35 20.7517 29.6141 21.5534 29.6141C22.3767 29.6141 23.07 29.35 23.6334 28.8219C24.1967 28.2734 24.5 27.6438 24.5 26.8719Z" fill="#A8A8A8"/>
<defs>
<linearGradient id="paint0_linear" x1="9" y1="18" x2="30.0222" y2="18" gradientUnits="userSpaceOnUse">
<stop stop-color="#2F80ED"/>
<stop offset="1" stop-color="#173E72"/>
</linearGradient>
</defs>
</svg>
