<svg width="50" height="50" viewBox="0 0 50 50" fill="none" xmlns="http://www.w3.org/2000/svg">
<circle cx="25" cy="25" r="24.5" stroke="#787878"/>
<path d="M12 15.125C12 14.2962 12.3292 13.5013 12.9153 12.9153C13.5013 12.3292 14.2962 12 15.125 12H33.875C34.7038 12 35.4987 12.3292 36.0847 12.9153C36.6708 13.5013 37 14.2962 37 15.125H12Z" fill="#787878"/>
<path fill-rule="evenodd" clip-rule="evenodd" d="M12 16.6875H37V33.875C37 34.7038 36.6708 35.4987 36.0847 36.0847C35.4987 36.6708 34.7038 37 33.875 37H15.125C14.2962 37 13.5013 36.6708 12.9153 36.0847C12.3292 35.4987 12 34.7038 12 33.875V16.6875ZM22.1562 22.9375C22.5707 22.9375 22.9681 22.7729 23.2611 22.4799C23.5541 22.1868 23.7188 21.7894 23.7188 21.375C23.7188 20.9606 23.5541 20.5632 23.2611 20.2701C22.9681 19.9771 22.5707 19.8125 22.1562 19.8125C21.7418 19.8125 21.3444 19.9771 21.0514 20.2701C20.7584 20.5632 20.5938 20.9606 20.5938 21.375C20.5938 21.7894 20.7584 22.1868 21.0514 22.4799C21.3444 22.7729 21.7418 22.9375 22.1562 22.9375ZM28.4062 21.375C28.4062 21.7894 28.2416 22.1868 27.9486 22.4799C27.6556 22.7729 27.2582 22.9375 26.8438 22.9375C26.4293 22.9375 26.0319 22.7729 25.7389 22.4799C25.4459 22.1868 25.2812 21.7894 25.2812 21.375C25.2812 20.9606 25.4459 20.5632 25.7389 20.2701C26.0319 19.9771 26.4293 19.8125 26.8438 19.8125C27.2582 19.8125 27.6556 19.9771 27.9486 20.2701C28.2416 20.5632 28.4062 20.9606 28.4062 21.375ZM31.5312 22.9375C31.9457 22.9375 32.3431 22.7729 32.6361 22.4799C32.9291 22.1868 33.0938 21.7894 33.0938 21.375C33.0938 20.9606 32.9291 20.5632 32.6361 20.2701C32.3431 19.9771 31.9457 19.8125 31.5312 19.8125C31.1168 19.8125 30.7194 19.9771 30.4264 20.2701C30.1334 20.5632 29.9688 20.9606 29.9688 21.375C29.9688 21.7894 30.1334 22.1868 30.4264 22.4799C30.7194 22.7729 31.1168 22.9375 31.5312 22.9375ZM19.0312 26.0625C19.0312 26.4769 18.8666 26.8743 18.5736 27.1674C18.2806 27.4604 17.8832 27.625 17.4688 27.625C17.0543 27.625 16.6569 27.4604 16.3639 27.1674C16.0709 26.8743 15.9062 26.4769 15.9062 26.0625C15.9062 25.6481 16.0709 25.2507 16.3639 24.9576C16.6569 24.6646 17.0543 24.5 17.4688 24.5C17.8832 24.5 18.2806 24.6646 18.5736 24.9576C18.8666 25.2507 19.0312 25.6481 19.0312 26.0625ZM22.1562 27.625C22.5707 27.625 22.9681 27.4604 23.2611 27.1674C23.5541 26.8743 23.7188 26.4769 23.7188 26.0625C23.7188 25.6481 23.5541 25.2507 23.2611 24.9576C22.9681 24.6646 22.5707 24.5 22.1562 24.5C21.7418 24.5 21.3444 24.6646 21.0514 24.9576C20.7584 25.2507 20.5938 25.6481 20.5938 26.0625C20.5938 26.4769 20.7584 26.8743 21.0514 27.1674C21.3444 27.4604 21.7418 27.625 22.1562 27.625ZM28.4062 26.0625C28.4062 26.4769 28.2416 26.8743 27.9486 27.1674C27.6556 27.4604 27.2582 27.625 26.8438 27.625C26.4293 27.625 26.0319 27.4604 25.7389 27.1674C25.4459 26.8743 25.2812 26.4769 25.2812 26.0625C25.2812 25.6481 25.4459 25.2507 25.7389 24.9576C26.0319 24.6646 26.4293 24.5 26.8438 24.5C27.2582 24.5 27.6556 24.6646 27.9486 24.9576C28.2416 25.2507 28.4062 25.6481 28.4062 26.0625ZM31.5312 27.625C31.9457 27.625 32.3431 27.4604 32.6361 27.1674C32.9291 26.8743 33.0938 26.4769 33.0938 26.0625C33.0938 25.6481 32.9291 25.2507 32.6361 24.9576C32.3431 24.6646 31.9457 24.5 31.5312 24.5C31.1168 24.5 30.7194 24.6646 30.4264 24.9576C30.1334 25.2507 29.9688 25.6481 29.9688 26.0625C29.9688 26.4769 30.1334 26.8743 30.4264 27.1674C30.7194 27.4604 31.1168 27.625 31.5312 27.625ZM19.0312 30.75C19.0312 31.1644 18.8666 31.5618 18.5736 31.8549C18.2806 32.1479 17.8832 32.3125 17.4688 32.3125C17.0543 32.3125 16.6569 32.1479 16.3639 31.8549C16.0709 31.5618 15.9062 31.1644 15.9062 30.75C15.9062 30.3356 16.0709 29.9382 16.3639 29.6451C16.6569 29.3521 17.0543 29.1875 17.4688 29.1875C17.8832 29.1875 18.2806 29.3521 18.5736 29.6451C18.8666 29.9382 19.0312 30.3356 19.0312 30.75ZM22.1562 32.3125C22.5707 32.3125 22.9681 32.1479 23.2611 31.8549C23.5541 31.5618 23.7188 31.1644 23.7188 30.75C23.7188 30.3356 23.5541 29.9382 23.2611 29.6451C22.9681 29.3521 22.5707 29.1875 22.1562 29.1875C21.7418 29.1875 21.3444 29.3521 21.0514 29.6451C20.7584 29.9382 20.5938 30.3356 20.5938 30.75C20.5938 31.1644 20.7584 31.5618 21.0514 31.8549C21.3444 32.1479 21.7418 32.3125 22.1562 32.3125ZM28.4062 30.75C28.4062 31.1644 28.2416 31.5618 27.9486 31.8549C27.6556 32.1479 27.2582 32.3125 26.8438 32.3125C26.4293 32.3125 26.0319 32.1479 25.7389 31.8549C25.4459 31.5618 25.2812 31.1644 25.2812 30.75C25.2812 30.3356 25.4459 29.9382 25.7389 29.6451C26.0319 29.3521 26.4293 29.1875 26.8438 29.1875C27.2582 29.1875 27.6556 29.3521 27.9486 29.6451C28.2416 29.9382 28.4062 30.3356 28.4062 30.75Z" fill="#787878"/>
</svg>
