<svg width="35" height="35" viewBox="0 0 35 35" fill="none" xmlns="http://www.w3.org/2000/svg">
<path d="M17.7152 15.6884C17.6897 15.6557 17.657 15.6293 17.6197 15.6111C17.5824 15.5929 17.5414 15.5835 17.4999 15.5835C17.4584 15.5835 17.4174 15.5929 17.3801 15.6111C17.3428 15.6293 17.3102 15.6557 17.2846 15.6884L13.4564 20.5317C13.4249 20.572 13.4053 20.6203 13.3999 20.6712C13.3946 20.7222 13.4036 20.7735 13.4261 20.8195C13.4486 20.8655 13.4835 20.9043 13.527 20.9313C13.5704 20.9584 13.6206 20.9727 13.6718 20.9726H16.1977V29.2577C16.1977 29.4081 16.3207 29.5312 16.4711 29.5312H18.5219C18.6723 29.5312 18.7953 29.4081 18.7953 29.2577V20.976H21.328C21.557 20.976 21.6835 20.7128 21.5434 20.5351L17.7152 15.6884Z" fill="url(#paint0_linear)"/>
<path d="M27.7334 12.5337C26.168 8.40479 22.1792 5.46875 17.5068 5.46875C12.8345 5.46875 8.8457 8.40137 7.28027 12.5303C4.35107 13.2993 2.1875 15.9688 2.1875 19.1406C2.1875 22.9175 5.24658 25.9766 9.02002 25.9766H10.3906C10.541 25.9766 10.6641 25.8535 10.6641 25.7031V23.6523C10.6641 23.502 10.541 23.3789 10.3906 23.3789H9.02002C7.86816 23.3789 6.78467 22.9209 5.97803 22.0903C5.1748 21.2632 4.74756 20.1489 4.78516 18.9937C4.81592 18.0913 5.12354 17.2437 5.68066 16.5293C6.25146 15.8013 7.05127 15.2715 7.93994 15.0356L9.23535 14.6973L9.71045 13.4463C10.0044 12.667 10.4146 11.939 10.9307 11.2793C11.4402 10.6255 12.0437 10.0507 12.7217 9.57373C14.1265 8.58594 15.7808 8.06299 17.5068 8.06299C19.2329 8.06299 20.8872 8.58594 22.292 9.57373C22.9722 10.0522 23.5737 10.6265 24.083 11.2793C24.5991 11.939 25.0093 12.6704 25.3032 13.4463L25.7749 14.6938L27.0669 15.0356C28.9194 15.5347 30.2148 17.2197 30.2148 19.1406C30.2148 20.272 29.7739 21.3384 28.9741 22.1382C28.5819 22.5327 28.1153 22.8455 27.6013 23.0585C27.0874 23.2715 26.5363 23.3804 25.98 23.3789H24.6094C24.459 23.3789 24.3359 23.502 24.3359 23.6523V25.7031C24.3359 25.8535 24.459 25.9766 24.6094 25.9766H25.98C29.7534 25.9766 32.8125 22.9175 32.8125 19.1406C32.8125 15.9722 30.6558 13.3062 27.7334 12.5337Z" fill="url(#paint1_linear)"/>
<defs>
<linearGradient id="paint0_linear" x1="17.5002" y1="15.5835" x2="17.5002" y2="29.5312" gradientUnits="userSpaceOnUse">
<stop stop-color="#2F80ED"/>
<stop offset="0.958333" stop-color="#143E77"/>
<stop offset="1" stop-color="#787878" stop-opacity="0"/>
</linearGradient>
<linearGradient id="paint1_linear" x1="2.625" y1="15.75" x2="33.25" y2="15.75" gradientUnits="userSpaceOnUse">
<stop stop-color="#2F80ED"/>
<stop offset="1" stop-color="#143E77"/>
</linearGradient>
</defs>
</svg>
