<svg width="36" height="40" viewBox="0 0 36 40" fill="none" xmlns="http://www.w3.org/2000/svg">
<path d="M21.8205 5C17.9915 5 10.1487 6.11111 9 6.11111V35H29V25.5556V13.3333L21.8205 5Z" fill="url(#paint0_linear)"/>
<path d="M9.25 5C8.38805 5 7.5614 5.34241 6.9519 5.9519C6.34241 6.5614 6 7.38805 6 8.25V34.25C6 35.112 6.34241 35.9386 6.9519 36.5481C7.5614 37.1576 8.38805 37.5 9.25 37.5H28.75C29.612 37.5 30.4386 37.1576 31.0481 36.5481C31.6576 35.9386 32 35.112 32 34.25V14.75L22.25 5H9.25ZM22.25 16.375H20.625V8.25L28.75 16.375H22.25Z" fill="#A8A8A8"/>
<defs>
<linearGradient id="paint0_linear" x1="9" y1="20.5556" x2="29.5812" y2="20.5556" gradientUnits="userSpaceOnUse">
<stop stop-color="#2F80ED"/>
<stop offset="1" stop-color="#173E72"/>
</linearGradient>
</defs>
</svg>
