<svg width="545" height="428" viewBox="0 0 545 428" fill="none" xmlns="http://www.w3.org/2000/svg">
<path d="M45.2741 206.541C44.7228 206.542 44.1942 206.761 43.8043 207.151C43.4145 207.541 43.1952 208.07 43.1946 208.621V423.7C43.1952 424.252 43.4145 424.78 43.8043 425.17C44.1942 425.56 44.7227 425.78 45.2741 425.781H314.872C315.423 425.78 315.952 425.56 316.342 425.17C316.731 424.78 316.951 424.252 316.951 423.7V243.146C316.951 242.595 316.731 242.066 316.342 241.676C315.952 241.286 315.423 241.066 314.872 241.066H160.14C158.57 241.067 157.055 240.482 155.893 239.424L121.107 207.809C120.21 206.992 119.04 206.54 117.827 206.541H45.2741Z" fill="#3F3D56"/>
<path d="M169.785 178.747C169.448 178.55 169.046 178.494 168.668 178.592C168.291 178.69 167.967 178.935 167.769 179.271L87.9302 315.166C87.7327 315.503 87.677 315.904 87.7751 316.282C87.8733 316.66 88.1173 316.984 88.4537 317.182L197.904 381.517C198.24 381.714 198.642 381.77 199.02 381.672C199.398 381.574 199.721 381.33 199.92 380.993L279.758 245.099C279.956 244.762 280.011 244.36 279.913 243.982C279.815 243.604 279.571 243.28 279.235 243.082L169.785 178.747Z" fill="#E6E6E6"/>
<path d="M171.46 185.2C171.123 185.003 170.722 184.947 170.344 185.045C169.966 185.143 169.642 185.387 169.444 185.724L94.3808 313.49C94.1834 313.827 94.1277 314.229 94.2258 314.607C94.324 314.985 94.568 315.308 94.9044 315.506L196.228 375.065C196.565 375.262 196.966 375.318 197.344 375.22C197.722 375.122 198.046 374.877 198.244 374.541L273.307 246.775C273.505 246.438 273.56 246.036 273.462 245.658C273.364 245.28 273.12 244.957 272.784 244.758L171.46 185.2Z" fill="white"/>
<path d="M152.315 248.315L226.975 292.2C227.225 292.347 227.502 292.444 227.789 292.484C228.077 292.524 228.369 292.507 228.65 292.434C228.931 292.361 229.194 292.233 229.426 292.059C229.657 291.884 229.852 291.665 229.999 291.415C230.146 291.165 230.242 290.888 230.282 290.6C230.322 290.313 230.305 290.021 230.233 289.74C230.16 289.459 230.032 289.195 229.857 288.964C229.682 288.732 229.464 288.537 229.214 288.39L154.554 244.505C154.304 244.358 154.027 244.261 153.739 244.22C153.452 244.18 153.159 244.196 152.878 244.269C152.597 244.342 152.333 244.47 152.101 244.645C151.869 244.819 151.674 245.038 151.527 245.289C151.38 245.539 151.284 245.816 151.244 246.104C151.204 246.392 151.221 246.684 151.294 246.966C151.367 247.247 151.495 247.51 151.67 247.742C151.846 247.974 152.065 248.168 152.315 248.315V248.315Z" fill="#E6E6E6"/>
<path d="M172.529 212.441L222.061 241.555C222.759 241.965 223.826 241.445 224.444 240.393C225.062 239.341 224.997 238.155 224.299 237.745L174.768 208.63C174.07 208.22 173.003 208.741 172.385 209.793C171.767 210.845 171.832 212.03 172.529 212.441Z" fill="#E6E6E6"/>
<path d="M166.113 223.363L215.644 252.478C216.342 252.888 217.409 252.367 218.027 251.315C218.645 250.263 218.581 249.078 217.883 248.667L168.351 219.553C167.653 219.143 166.587 219.663 165.968 220.715C165.35 221.767 165.415 222.953 166.113 223.363Z" fill="#E6E6E6"/>
<path d="M145.078 260.634L219.738 304.519C220.243 304.816 220.845 304.899 221.411 304.752C221.978 304.604 222.463 304.238 222.76 303.733C223.056 303.228 223.14 302.626 222.994 302.059C222.847 301.492 222.481 301.007 221.976 300.709L147.316 256.824C146.811 256.528 146.209 256.444 145.643 256.592C145.076 256.739 144.591 257.106 144.294 257.611C143.998 258.116 143.913 258.718 144.06 259.285C144.207 259.852 144.573 260.337 145.078 260.634V260.634Z" fill="#E6E6E6"/>
<path d="M137.84 272.954L212.5 316.839C213.005 317.135 213.607 317.219 214.174 317.072C214.74 316.924 215.225 316.558 215.522 316.053C215.819 315.548 215.903 314.946 215.756 314.379C215.609 313.812 215.243 313.326 214.738 313.029L140.079 269.144C139.828 268.997 139.552 268.901 139.265 268.861C138.977 268.82 138.685 268.837 138.404 268.91C138.123 268.983 137.86 269.111 137.628 269.286C137.397 269.461 137.202 269.679 137.055 269.93C136.908 270.18 136.812 270.456 136.771 270.744C136.731 271.031 136.748 271.324 136.821 271.604C136.894 271.885 137.022 272.149 137.196 272.381C137.371 272.612 137.59 272.807 137.84 272.954V272.954Z" fill="#E6E6E6"/>
<path d="M130.603 285.273L205.262 329.158C205.767 329.454 206.369 329.538 206.935 329.39C207.502 329.242 207.987 328.876 208.283 328.371C208.58 327.866 208.664 327.265 208.517 326.698C208.37 326.131 208.005 325.646 207.501 325.348L132.841 281.463C132.591 281.316 132.314 281.22 132.027 281.18C131.74 281.14 131.447 281.157 131.166 281.23C130.886 281.303 130.622 281.43 130.39 281.605C130.159 281.78 129.964 281.999 129.817 282.249C129.67 282.499 129.574 282.776 129.534 283.063C129.494 283.351 129.511 283.643 129.584 283.924C129.657 284.205 129.784 284.468 129.959 284.7C130.134 284.932 130.352 285.126 130.603 285.273V285.273Z" fill="#E6E6E6"/>
<path d="M123.365 297.593L198.024 341.478C198.275 341.625 198.551 341.721 198.838 341.761C199.126 341.801 199.418 341.784 199.699 341.711C199.98 341.638 200.243 341.511 200.475 341.336C200.706 341.161 200.901 340.942 201.048 340.692C201.195 340.442 201.291 340.165 201.332 339.878C201.372 339.591 201.355 339.298 201.282 339.017C201.209 338.736 201.081 338.473 200.907 338.241C200.732 338.01 200.513 337.815 200.263 337.668L125.603 293.783C125.098 293.486 124.496 293.402 123.929 293.549C123.362 293.696 122.876 294.063 122.579 294.568C122.283 295.073 122.199 295.676 122.346 296.243C122.493 296.81 122.86 297.296 123.365 297.593Z" fill="#E6E6E6"/>
<path d="M116.127 309.912L190.787 353.797C191.292 354.094 191.894 354.178 192.461 354.031C193.028 353.884 193.514 353.517 193.81 353.012C194.107 352.507 194.191 351.904 194.044 351.337C193.897 350.77 193.53 350.284 193.025 349.987L118.365 306.102C118.115 305.955 117.839 305.859 117.551 305.819C117.264 305.779 116.972 305.796 116.691 305.869C116.41 305.942 116.146 306.069 115.915 306.244C115.683 306.419 115.489 306.638 115.342 306.888C115.195 307.138 115.098 307.415 115.058 307.702C115.018 307.989 115.035 308.282 115.108 308.563C115.181 308.844 115.308 309.107 115.483 309.339C115.658 309.57 115.877 309.765 116.127 309.912V309.912Z" fill="#E6E6E6"/>
<path d="M237.54 267.247C243.966 267.247 249.175 262.036 249.175 255.609C249.175 249.182 243.966 243.971 237.54 243.971C231.115 243.971 225.906 249.182 225.906 255.609C225.906 262.036 231.115 267.247 237.54 267.247Z" fill="#E6E6E6"/>
<path d="M76.8958 217.884C76.5138 217.803 76.1154 217.877 75.7879 218.09C75.4604 218.302 75.2306 218.636 75.1489 219.018L42.3659 373.192C42.2851 373.574 42.3591 373.972 42.5718 374.3C42.7844 374.628 43.1182 374.857 43.5 374.939L167.672 401.356C168.054 401.437 168.452 401.363 168.78 401.15C169.107 400.938 169.337 400.604 169.419 400.222L202.202 246.048C202.283 245.666 202.209 245.267 201.996 244.94C201.783 244.612 201.449 244.382 201.068 244.301L76.8958 217.884Z" fill="#E6E6E6"/>
<path d="M80.525 223.475C80.143 223.394 79.7446 223.469 79.4171 223.681C79.0896 223.894 78.8598 224.228 78.7782 224.61L47.956 369.562C47.8752 369.944 47.9492 370.342 48.1618 370.67C48.3745 370.998 48.7083 371.227 49.0901 371.309L164.043 395.765C164.425 395.846 164.823 395.771 165.151 395.559C165.478 395.346 165.708 395.012 165.79 394.63L196.612 249.678C196.693 249.296 196.619 248.898 196.406 248.57C196.193 248.242 195.86 248.013 195.478 247.931L80.525 223.475Z" fill="white"/>
<path d="M167.017 307.427L82.3149 289.407C82.0307 289.347 81.7611 289.232 81.5216 289.068C81.282 288.903 81.0772 288.693 80.9188 288.45C80.7605 288.206 80.6517 287.934 80.5986 287.648C80.5456 287.363 80.5494 287.07 80.6099 286.785C80.6703 286.501 80.7861 286.232 80.9508 285.992C81.1154 285.753 81.3256 285.549 81.5694 285.391C81.8131 285.233 82.0856 285.124 82.3713 285.072C82.6569 285.019 82.9501 285.024 83.2341 285.085L167.936 303.104C168.22 303.164 168.49 303.28 168.729 303.444C168.969 303.608 169.174 303.818 169.332 304.062C169.491 304.305 169.599 304.578 169.652 304.863C169.705 305.149 169.702 305.442 169.641 305.726C169.581 306.01 169.465 306.28 169.3 306.519C169.136 306.759 168.925 306.963 168.682 307.121C168.438 307.279 168.165 307.387 167.88 307.44C167.594 307.492 167.301 307.488 167.017 307.427V307.427Z" fill="#E6E6E6"/>
<path d="M176.308 267.309L120.114 255.354C119.322 255.186 118.886 254.082 119.14 252.888C119.394 251.694 120.241 250.863 121.033 251.032L177.227 262.987C178.019 263.155 178.455 264.259 178.201 265.453C177.947 266.647 177.1 267.478 176.308 267.309Z" fill="#E6E6E6"/>
<path d="M173.673 279.701L117.479 267.746C116.687 267.578 116.251 266.473 116.505 265.28C116.759 264.086 117.606 263.255 118.398 263.423L174.592 275.378C175.384 275.547 175.82 276.651 175.566 277.845C175.312 279.038 174.465 279.869 173.673 279.701Z" fill="#E6E6E6"/>
<path d="M164.045 321.404L79.3431 303.384C78.7709 303.261 78.2708 302.916 77.9526 302.425C77.6344 301.934 77.524 301.336 77.6458 300.764C77.7675 300.191 78.1114 299.69 78.6019 299.371C79.0925 299.052 79.6896 298.94 80.2622 299.061L164.964 317.081C165.248 317.141 165.517 317.257 165.756 317.421C165.995 317.586 166.2 317.796 166.358 318.039C166.516 318.283 166.624 318.555 166.677 318.84C166.73 319.125 166.726 319.418 166.666 319.702C166.605 319.986 166.49 320.255 166.325 320.494C166.161 320.733 165.951 320.938 165.708 321.096C165.464 321.254 165.192 321.362 164.907 321.415C164.622 321.468 164.329 321.464 164.045 321.404V321.404Z" fill="#E6E6E6"/>
<path d="M161.073 335.38L76.3712 317.36C75.799 317.237 75.2989 316.892 74.9807 316.401C74.6624 315.91 74.5521 315.313 74.6738 314.74C74.7956 314.167 75.1395 313.667 75.63 313.347C76.1206 313.028 76.7177 312.917 77.2903 313.038L161.992 331.057C162.276 331.118 162.545 331.233 162.784 331.398C163.023 331.562 163.228 331.772 163.386 332.016C163.544 332.259 163.652 332.531 163.705 332.816C163.758 333.102 163.754 333.395 163.694 333.678C163.633 333.962 163.518 334.231 163.353 334.471C163.189 334.71 162.979 334.914 162.736 335.072C162.492 335.23 162.22 335.339 161.935 335.391C161.65 335.444 161.357 335.44 161.073 335.38V335.38Z" fill="#E6E6E6"/>
<path d="M158.101 349.357L73.3991 331.337C73.1149 331.277 72.8454 331.161 72.6058 330.997C72.3662 330.833 72.1614 330.623 72.0031 330.379C71.8447 330.136 71.7359 329.864 71.6829 329.578C71.6299 329.292 71.6337 328.999 71.6941 328.715C71.7545 328.431 71.8704 328.161 72.035 327.922C72.1996 327.683 72.4098 327.478 72.6536 327.32C72.8973 327.162 73.1698 327.054 73.4555 327.001C73.7411 326.949 74.0343 326.953 74.3183 327.014L159.02 345.034C159.592 345.157 160.093 345.502 160.411 345.993C160.729 346.484 160.839 347.082 160.718 347.654C160.596 348.227 160.252 348.728 159.761 349.047C159.271 349.366 158.674 349.477 158.101 349.357V349.357Z" fill="#E6E6E6"/>
<path d="M155.129 363.333L70.4272 345.313C70.143 345.253 69.8734 345.138 69.6339 344.974C69.3943 344.809 69.1895 344.599 69.0311 344.356C68.8728 344.112 68.764 343.84 68.7109 343.554C68.6579 343.269 68.6617 342.976 68.7222 342.691C68.7826 342.407 68.8984 342.138 69.0631 341.898C69.2277 341.659 69.4379 341.455 69.6817 341.297C69.9254 341.139 70.1979 341.03 70.4835 340.978C70.7692 340.925 71.0624 340.93 71.3464 340.991L156.048 359.01C156.333 359.07 156.602 359.186 156.842 359.35C157.081 359.514 157.286 359.724 157.444 359.968C157.603 360.211 157.712 360.484 157.765 360.769C157.818 361.055 157.814 361.348 157.753 361.632C157.693 361.916 157.577 362.186 157.413 362.425C157.248 362.665 157.038 362.869 156.794 363.027C156.55 363.185 156.278 363.293 155.992 363.346C155.706 363.398 155.413 363.394 155.129 363.333Z" fill="#E6E6E6"/>
<path d="M152.157 377.309L67.4554 359.29C66.8832 359.167 66.3831 358.822 66.0649 358.331C65.7467 357.839 65.6363 357.242 65.7581 356.669C65.8798 356.097 66.2237 355.596 66.7143 355.277C67.2048 354.958 67.8019 354.846 68.3746 354.967L153.077 372.987C153.361 373.047 153.63 373.162 153.87 373.326C154.109 373.491 154.314 373.701 154.473 373.944C154.631 374.188 154.74 374.46 154.793 374.746C154.846 375.031 154.842 375.325 154.782 375.609C154.721 375.893 154.605 376.162 154.441 376.402C154.276 376.641 154.066 376.845 153.822 377.003C153.578 377.161 153.306 377.27 153.02 377.322C152.735 377.375 152.441 377.37 152.157 377.309V377.309Z" fill="#E6E6E6"/>
<path d="M99.2093 266.912C105.635 266.912 110.844 261.702 110.844 255.275C110.844 248.847 105.635 243.637 99.2093 243.637C92.7837 243.637 87.5747 248.847 87.5747 255.275C87.5747 261.702 92.7837 266.912 99.2093 266.912Z" fill="#E6E6E6"/>
<path d="M342.14 226.132C343.162 227.015 344.369 227.657 345.671 228.012C346.974 228.367 348.34 228.426 349.668 228.185C350.996 227.944 352.254 227.408 353.349 226.617C354.443 225.827 355.347 224.801 355.994 223.616L365.538 206.126L358.32 200.142L342.587 212.065C341.511 212.879 340.632 213.924 340.013 215.123C339.393 216.321 339.05 217.643 339.007 218.992C338.964 220.34 339.223 221.682 339.765 222.917C340.307 224.152 341.119 225.251 342.14 226.132V226.132Z" fill="#FFB9B9"/>
<path d="M353.314 201.746L364.459 210.736L425.217 163.627L421.622 81.637C418.205 84.3713 415.364 87.7562 413.263 91.5958C411.162 95.4354 409.843 99.6536 409.382 104.006L398.973 150.322L353.314 201.746Z" fill="#4E8FE7"/>
<path d="M470.516 392.337H485.616L487.054 260.001H456.854L470.516 392.337Z" fill="#FFB9B9"/>
<path d="M433.126 399.529H448.226L449.664 258.563L419.465 257.125L433.126 399.529Z" fill="#FFB9B9"/>
<path d="M413.713 271.509L451.103 272.948L452.541 265.036L454.698 275.825L489.211 274.386C489.206 239.407 488.459 200.755 492.807 187.361L412.994 195.273C406.708 222.374 405.934 248.049 413.713 271.509Z" fill="#2F2E41"/>
<path d="M479.212 426.86C487.283 426.86 493.611 429.994 492.876 421.954L490.785 394.77C490.745 393.618 490.371 392.503 489.708 391.561C489.046 390.618 488.124 389.888 487.054 389.46V389.46C481.302 382.716 475.55 381.996 469.797 387.303C467.927 389.641 466.837 392.507 466.679 395.498L465.509 422.497C465.104 430.344 471.356 426.86 479.212 426.86Z" fill="#2F2E41"/>
<path d="M405.504 427.241L443.88 426.225C445.469 426.004 446.92 425.204 447.955 423.978C448.99 422.752 449.536 421.186 449.488 419.582L450.211 400.825C450.257 399.9 449.941 398.995 449.329 398.3C448.718 397.606 447.86 397.178 446.937 397.107L441.036 396.652C440.336 390.23 436.427 388.672 430.97 389.46L413.713 408.879L402.341 412.064C400.518 412.575 398.944 413.734 397.915 415.324C396.886 416.914 396.474 418.825 396.754 420.698V420.698C397.058 422.721 398.147 424.543 399.785 425.768C401.423 426.993 403.478 427.522 405.504 427.241V427.241Z" fill="#2F2E41"/>
<path d="M449.664 54.3068C461.975 54.3068 471.954 44.3247 471.954 32.0112C471.954 19.6977 461.975 9.71558 449.664 9.71558C437.354 9.71558 427.375 19.6977 427.375 32.0112C427.375 44.3247 437.354 54.3068 449.664 54.3068Z" fill="#FFB9B9"/>
<path d="M438.16 71.5679L476.269 60.7797C467.746 57.4635 464.456 51.6788 466.202 43.5186H441.036C444.272 55.8116 444.285 65.8433 438.16 71.5679Z" fill="#FFB9B9"/>
<path d="M410.837 204.622C432.344 207.372 452.159 199.042 470.876 192.755C479.326 189.917 487.838 192.88 495.683 188.081C492.291 154.661 495.584 117.016 502.789 76.9C503.2 74.629 502.772 72.2859 501.583 70.3079C500.394 68.33 498.526 66.8522 496.328 66.1504L472.674 58.6221L451.822 65.8142L441.036 67.9718L418.827 82.9819C417.531 83.8575 416.515 85.089 415.902 86.5282C415.288 87.9675 415.104 89.5533 415.37 91.095C422.042 128.823 420.496 167.547 410.837 204.622V204.622Z" fill="#4E8FE7"/>
<path d="M471.235 193.115L478.426 211.814L485.616 201.026L476.269 191.676L471.235 193.115Z" fill="#FFB9B9"/>
<path d="M428.275 24.0613C436.942 18.4976 445.584 16.665 454.205 18.2304C456.828 18.7198 459.321 19.743 461.532 21.2364C463.743 22.7298 465.623 24.6616 467.056 26.9119C468.489 29.1623 469.445 31.6832 469.864 34.3183C470.283 36.9534 470.157 39.6466 469.492 42.2307C469.474 42.3003 469.456 42.37 469.438 42.4397L470.726 40.0177C474.144 33.5946 475.31 26.2112 474.038 19.0473V19.0473C473.062 13.5461 470.124 8.58585 465.769 5.08686C461.414 1.58787 455.938 -0.212324 450.357 0.0202668L445.507 0.222359C439.927 0.454915 434.618 2.68892 430.549 6.51575C426.481 10.3426 423.925 15.5065 423.351 21.063V21.063C423.29 21.6631 423.4 22.2681 423.669 22.8081C423.937 23.3481 424.353 23.8011 424.868 24.1147C425.383 24.4283 425.976 24.5897 426.579 24.5803C427.182 24.5708 427.77 24.3909 428.275 24.0613V24.0613Z" fill="#2F2E41"/>
<path d="M474.831 191.677L484.897 204.622L520.13 152.12L517.082 98.7805C516.694 91.9869 514.595 85.402 510.979 79.6381C507.363 73.8743 502.348 69.1188 496.402 65.8142V65.8142L497.121 147.805L474.831 191.677Z" fill="#4E8FE7"/>
<path d="M247.558 145.246C247.228 145.037 246.829 144.968 246.448 145.053C246.067 145.139 245.735 145.372 245.526 145.701L161.137 278.817C160.928 279.147 160.859 279.546 160.944 279.927C161.03 280.308 161.263 280.64 161.592 280.85L268.804 348.851C269.134 349.06 269.533 349.129 269.914 349.044C270.295 348.958 270.627 348.725 270.836 348.396L355.225 215.28C355.434 214.95 355.503 214.551 355.418 214.17C355.332 213.789 355.099 213.457 354.77 213.247L247.558 145.246Z" fill="#4E8FE7"/>
<path d="M249.014 151.751C248.684 151.543 248.285 151.473 247.904 151.559C247.523 151.644 247.191 151.877 246.982 152.207L167.641 277.36C167.432 277.69 167.363 278.089 167.448 278.47C167.533 278.852 167.766 279.183 168.096 279.393L267.347 342.345C267.677 342.554 268.077 342.624 268.458 342.538C268.839 342.453 269.17 342.22 269.38 341.89L348.721 216.737C348.93 216.407 348.999 216.007 348.914 215.626C348.828 215.245 348.595 214.914 348.266 214.704L249.014 151.751Z" fill="white"/>
<path d="M300.879 260.569L227.747 214.183C227.502 214.027 227.29 213.825 227.123 213.588C226.956 213.35 226.837 213.083 226.774 212.799C226.71 212.516 226.703 212.223 226.753 211.937C226.803 211.652 226.909 211.378 227.064 211.133C227.219 210.888 227.421 210.676 227.659 210.509C227.896 210.342 228.164 210.224 228.447 210.16C228.73 210.097 229.023 210.09 229.309 210.14C229.594 210.189 229.868 210.295 230.113 210.45L303.245 256.837C303.49 256.992 303.702 257.194 303.869 257.432C304.036 257.669 304.155 257.937 304.218 258.22C304.281 258.503 304.288 258.796 304.239 259.082C304.189 259.368 304.083 259.641 303.928 259.886C303.773 260.131 303.57 260.343 303.333 260.51C303.096 260.677 302.828 260.796 302.545 260.859C302.262 260.922 301.969 260.929 301.683 260.88C301.398 260.83 301.124 260.724 300.879 260.569V260.569Z" fill="#4E8FE7"/>
<path d="M323.551 226.195L275.032 195.421C274.349 194.988 274.324 193.801 274.978 192.77C275.631 191.74 276.715 191.256 277.398 191.689L325.917 222.463C326.6 222.897 326.625 224.084 325.972 225.114C325.318 226.145 324.234 226.629 323.551 226.195Z" fill="#4E8FE7"/>
<path d="M316.768 236.894L268.25 206.12C267.566 205.687 267.542 204.5 268.195 203.469C268.848 202.439 269.932 201.955 270.616 202.388L319.134 233.162C319.818 233.596 319.842 234.783 319.189 235.813C318.535 236.844 317.452 237.328 316.768 236.894Z" fill="#4E8FE7"/>
<path d="M293.229 272.636L220.096 226.25C219.602 225.936 219.253 225.439 219.126 224.867C218.998 224.296 219.102 223.697 219.416 223.202C219.729 222.708 220.226 222.358 220.798 222.23C221.369 222.101 221.967 222.205 222.462 222.518L295.595 268.904C295.84 269.06 296.052 269.262 296.219 269.499C296.386 269.736 296.504 270.004 296.568 270.287C296.631 270.571 296.638 270.864 296.588 271.149C296.538 271.435 296.433 271.709 296.277 271.954C296.122 272.199 295.92 272.411 295.683 272.578C295.445 272.745 295.178 272.863 294.895 272.927C294.611 272.99 294.319 272.997 294.033 272.947C293.747 272.897 293.474 272.792 293.229 272.636H293.229Z" fill="#4E8FE7"/>
<path d="M285.579 284.704L212.446 238.318C211.952 238.003 211.603 237.506 211.475 236.934C211.348 236.363 211.452 235.764 211.766 235.27C212.079 234.775 212.576 234.425 213.147 234.297C213.719 234.169 214.317 234.272 214.812 234.585L287.945 280.972C288.19 281.127 288.403 281.329 288.57 281.566C288.737 281.804 288.856 282.072 288.92 282.355C288.983 282.638 288.99 282.931 288.941 283.218C288.891 283.504 288.785 283.777 288.63 284.023C288.474 284.268 288.272 284.48 288.035 284.647C287.797 284.814 287.529 284.933 287.245 284.996C286.962 285.059 286.669 285.066 286.383 285.016C286.097 284.966 285.824 284.86 285.579 284.704V284.704Z" fill="#4E8FE7"/>
<path d="M277.929 296.771L204.796 250.385C204.55 250.23 204.338 250.028 204.171 249.79C204.004 249.553 203.885 249.285 203.821 249.002C203.757 248.718 203.75 248.425 203.8 248.139C203.85 247.853 203.955 247.579 204.111 247.334C204.266 247.089 204.469 246.876 204.706 246.709C204.944 246.542 205.212 246.424 205.495 246.361C205.779 246.297 206.072 246.291 206.358 246.341C206.644 246.391 206.917 246.497 207.162 246.653L280.295 293.039C280.789 293.353 281.138 293.851 281.265 294.422C281.393 294.994 281.288 295.592 280.975 296.087C280.661 296.581 280.164 296.931 279.593 297.059C279.022 297.188 278.423 297.084 277.929 296.771V296.771Z" fill="#4E8FE7"/>
<path d="M270.278 308.839L197.146 262.452C196.651 262.139 196.301 261.641 196.173 261.069C196.045 260.497 196.149 259.898 196.463 259.403C196.777 258.908 197.274 258.558 197.846 258.43C198.418 258.302 199.017 258.406 199.512 258.72L272.644 305.106C273.138 305.421 273.487 305.918 273.615 306.49C273.743 307.061 273.638 307.66 273.325 308.154C273.011 308.649 272.514 308.999 271.943 309.127C271.372 309.255 270.773 309.152 270.278 308.839V308.839Z" fill="#4E8FE7"/>
<path d="M262.628 320.906L189.495 274.52C189.25 274.365 189.038 274.163 188.871 273.925C188.705 273.688 188.586 273.42 188.523 273.137C188.459 272.854 188.452 272.561 188.502 272.275C188.552 271.989 188.657 271.716 188.813 271.471C188.968 271.226 189.17 271.014 189.407 270.847C189.645 270.68 189.913 270.561 190.196 270.498C190.479 270.434 190.772 270.427 191.057 270.477C191.343 270.527 191.616 270.632 191.861 270.788L264.994 317.174C265.489 317.488 265.839 317.985 265.967 318.557C266.095 319.129 265.99 319.729 265.677 320.223C265.363 320.718 264.865 321.068 264.294 321.196C263.722 321.324 263.123 321.22 262.628 320.906V320.906Z" fill="#4E8FE7"/>
<path d="M255.463 199.705C261.889 199.705 267.098 194.495 267.098 188.067C267.098 181.64 261.889 176.43 255.463 176.43C249.037 176.43 243.828 181.64 243.828 188.067C243.828 194.495 249.037 199.705 255.463 199.705Z" fill="#4E8FE7"/>
<path d="M26.9502 263.032C26.6575 263.032 26.368 263.094 26.1008 263.214C25.8336 263.333 25.5946 263.508 25.3995 263.726C25.2044 263.945 25.0577 264.202 24.9688 264.481C24.8799 264.76 24.8509 265.054 24.8837 265.345L42.9104 425.372C42.9673 425.88 43.2096 426.35 43.5909 426.69C43.9721 427.031 44.4656 427.219 44.9769 427.219H315.169C315.68 427.219 316.174 427.031 316.555 426.69C316.937 426.35 317.179 425.88 317.236 425.372L335.262 265.345C335.295 265.054 335.266 264.76 335.177 264.481C335.088 264.202 334.942 263.945 334.747 263.726C334.552 263.507 334.314 263.331 334.046 263.212C333.779 263.092 333.489 263.031 333.196 263.032H26.9502Z" fill="#E6E6E6"/>
<path d="M51.5309 289.909L138.126 289.44C138.711 289.436 139.271 289.2 139.682 288.783C140.093 288.367 140.323 287.804 140.319 287.219C140.316 286.633 140.081 286.073 139.665 285.661C139.25 285.249 138.688 285.019 138.102 285.021L51.5069 285.49C50.9211 285.493 50.3604 285.729 49.9484 286.146C49.5364 286.562 49.3067 287.126 49.3098 287.712C49.313 288.298 49.5488 288.858 49.9653 289.271C50.3818 289.683 50.945 289.913 51.5309 289.909V289.909Z" fill="white"/>
<path d="M51.5309 303.574L102.894 303.105C103.479 303.101 104.039 302.865 104.45 302.448C104.861 302.032 105.09 301.469 105.087 300.884C105.084 300.298 104.848 299.738 104.433 299.326C104.017 298.914 103.455 298.684 102.87 298.686L51.5069 299.155C50.9211 299.158 50.3604 299.394 49.9484 299.811C49.5364 300.227 49.3067 300.791 49.3098 301.377C49.313 301.963 49.5488 302.523 49.9653 302.936C50.3818 303.348 50.945 303.578 51.5309 303.574V303.574Z" fill="white"/>
<path d="M544.716 428H0V426.431H545L544.716 428Z" fill="#3F3D56"/>
</svg>
