<svg width="28" height="25" viewBox="0 0 28 25" fill="none" xmlns="http://www.w3.org/2000/svg">
<path d="M27.9985 2.34C27.9982 1.73484 27.7698 1.15337 27.3613 0.717802C26.9529 0.282236 26.3962 0.0264919 25.8082 0.00432003V0H2.39532V0.00648022C2.35472 0.00432022 2.31447 0 2.27352 0C1.80302 0.00031554 1.3442 0.150665 0.960228 0.430343C0.576261 0.710021 0.286043 1.10527 0.129543 1.56165C-0.0269567 2.01803 -0.0420389 2.51309 0.0863738 2.97866C0.214787 3.44422 0.480377 3.85738 0.846567 4.16124L11.3956 15.0113L11.3952 21.7069V21.7624H11.4005C11.4093 21.9688 11.4689 22.1696 11.5738 22.3459C11.6787 22.5222 11.8253 22.6683 12 22.7704L11.9969 22.7761L14.7521 24.4123C14.7752 24.4289 14.8007 24.4408 14.8249 24.4555L14.8347 24.4613C15.0104 24.5657 15.212 24.6298 15.4297 24.6298C15.5867 24.6298 15.7422 24.598 15.8873 24.5362C16.0323 24.4745 16.1642 24.3839 16.2752 24.2697C16.3862 24.1555 16.4743 24.0199 16.5343 23.8707C16.5944 23.7214 16.6253 23.5615 16.6253 23.4C16.6253 23.3676 16.6183 23.337 16.6162 23.3053H16.6253V15.0214L27.2712 4.0716L27.2607 4.0608C27.4932 3.84245 27.6789 3.57666 27.8059 3.28037C27.933 2.98409 27.9985 2.66382 27.9985 2.34ZM7.78567 4.68H7.79057L7.79092 4.6854L7.78567 4.68Z" fill="#4E8FE7"/>
</svg>
