<svg width="120" height="120" viewBox="0 0 120 120" fill="none" xmlns="http://www.w3.org/2000/svg">
<g clip-path="url(#clip0)">
<path d="M100.54 16.5876H110.811C115.856 16.5876 120 20.47 120 25.2347V110.999C120 115.941 115.856 119.999 110.811 119.999H9.00876C3.96372 119.999 -0.000244141 115.941 -0.000244141 110.999V25.2347C-0.000244141 20.47 3.96372 16.5876 9.00876 16.5876H19.4592V15.5288C19.4592 12.5288 20.3601 9.17585 22.7025 6.70526C24.8646 4.41115 28.4682 2.46997 33.8736 2.46997C39.4592 2.46997 43.243 4.41115 45.5853 6.70526C47.7475 9.17585 48.6484 12.7053 48.6484 15.5288V16.5876H71.1709V15.5288C71.1709 12.5288 72.252 9.17585 74.5943 6.70526C76.7565 4.41115 80.3601 2.46997 85.9457 2.46997C91.3511 2.46997 95.1349 4.41115 97.4772 6.70526C99.6394 9.17585 100.54 12.7053 100.54 15.5288V16.5876ZM39.8196 30.8817V15.5288C39.8196 12.7053 38.0178 11.2935 33.8736 11.2935C29.9097 11.2935 28.288 12.7053 28.288 15.5288V30.8817C28.288 33.7053 29.9097 34.9406 33.8736 34.9406C38.0178 34.9406 39.8196 33.7053 39.8196 30.8817ZM91.7115 30.8817V15.5288C91.7115 12.7053 89.5493 11.2935 85.9457 11.2935C81.8016 11.2935 79.9998 12.7053 79.9998 15.5288V30.8817C79.9998 33.7053 81.8016 34.9406 85.9457 34.9406C89.9097 34.9406 91.7115 33.7053 91.7115 30.8817ZM12.252 107.999H107.748V45.7053H12.252V107.999ZM29.0088 69.1758H38.0178C38.0178 66.8817 38.5583 64.9406 39.8196 63.3523C40.9007 61.9406 42.8826 61.0582 45.225 61.0582C46.8466 61.0582 48.4682 61.5876 49.7295 62.6464C50.9907 63.7053 51.8916 65.2935 51.8916 67.2347C51.8916 68.47 51.5313 69.5288 50.8106 70.2347C50.27 70.9406 49.1889 71.6464 48.288 71.9994C47.3871 72.3523 46.3061 72.7053 45.225 72.7053C43.9637 72.8817 42.7025 72.8817 41.8016 72.7053V79.2347C42.8826 79.2347 44.3241 79.2347 45.5853 79.4111C46.6664 79.4111 47.9277 79.5876 48.8286 80.117C49.9097 80.47 50.9907 81.1758 51.7115 82.2347C52.252 83.117 52.6124 84.3523 52.6124 85.9406C52.6124 88.2347 51.8916 89.9994 50.4502 91.2347C49.0088 92.6464 47.207 93.1758 45.0448 93.1758C43.7835 93.1758 42.3421 92.9994 41.4412 92.47C40.5403 91.9406 39.6394 91.4111 38.9187 90.7053C38.3781 89.8229 37.8376 88.7641 37.4772 87.7053C37.1169 86.6464 36.9367 85.4111 36.9367 84.1758H27.9277C27.9277 86.8229 28.288 89.2935 29.1889 91.2347C29.9097 93.3523 30.9907 94.9406 32.6124 96.3523C34.0538 97.7641 36.0358 98.9994 38.0178 99.7053C40.1799 100.411 42.7025 100.764 45.225 100.764C47.3871 100.764 49.7295 100.411 51.7115 99.7053C53.6934 99.1758 55.4953 98.2935 57.1169 97.0582C58.7385 95.8229 60.1799 94.0582 61.0808 92.2935C61.9817 90.3523 62.5223 88.2347 62.5223 85.7641C62.5223 83.2935 61.8016 80.9994 60.3601 79.0582C58.9187 77.2935 56.7565 76.0582 54.234 75.5288V75.3523C56.3962 74.8229 58.0178 73.5876 59.0989 71.8229C60.1799 70.2347 60.7205 68.117 60.7205 65.9994C60.7205 64.0582 60.3601 62.2935 59.4592 60.7053C58.5583 59.117 57.1169 57.7053 55.6754 56.6464C54.234 55.5876 52.6124 54.8817 50.8106 54.3523C49.0088 53.8229 47.0268 53.47 45.225 53.47C42.8826 53.47 40.5403 53.8229 38.5583 54.5288C36.7565 55.4111 34.9547 56.47 33.5133 57.7053C32.252 59.117 31.1709 60.8817 30.27 62.8229C29.5493 64.5876 29.1889 66.8817 29.0088 69.1758ZM80.1799 70.4111V99.8817H89.7295V54.3523H82.1619C81.9817 56.117 81.261 57.5288 80.3601 58.5876C79.6394 59.8229 78.5583 60.8817 77.4772 61.5876C76.216 62.2935 74.9547 62.8229 73.3331 62.9994C71.8916 63.3523 70.27 63.3523 68.6484 63.3523V70.4111H80.1799Z" fill="#EB5757"/>
</g>
<defs>
<clipPath id="clip0">
<rect x="-0.000244141" y="-0.000732422" width="120" height="120" fill="white"/>
</clipPath>
</defs>
</svg>
