<svg width="120" height="120" viewBox="0 0 120 120" fill="none" xmlns="http://www.w3.org/2000/svg">
<g clip-path="url(#clip0)">
<path d="M105 119.999H15.0002C10.8596 119.999 7.32446 118.534 4.39478 115.605C1.46509 112.675 0.000244141 109.14 0.000244141 104.999V29.9993C0.000244141 25.8586 1.46509 22.3235 4.39478 19.3938C7.32446 16.4641 10.8596 14.9993 15.0002 14.9993H22.5002V7.49927C22.5002 5.38989 23.2229 3.61255 24.6682 2.16724C26.1135 0.721924 27.8909 -0.000732422 30.0002 -0.000732422C32.1096 -0.000732422 33.887 0.721924 35.3323 2.16724C36.7776 3.61255 37.5002 5.38989 37.5002 7.49927V14.9993H52.5002V7.49927C52.5002 5.38989 53.2229 3.61255 54.6682 2.16724C56.1135 0.721924 57.8909 -0.000732422 60.0002 -0.000732422C62.1096 -0.000732422 63.887 0.721924 65.3323 2.16724C66.7776 3.61255 67.5002 5.38989 67.5002 7.49927V14.9993H82.5002V7.49927C82.5002 5.38989 83.2229 3.61255 84.6682 2.16724C86.1135 0.721924 87.8909 -0.000732422 90.0002 -0.000732422C92.1096 -0.000732422 93.887 0.721924 95.3323 2.16724C96.7776 3.61255 97.5002 5.38989 97.5002 7.49927V14.9993H105C109.141 14.9993 112.676 16.4641 115.606 19.3938C118.535 22.3235 120 25.8586 120 29.9993V104.999C120 109.14 118.535 112.675 115.606 115.605C112.676 118.534 109.141 119.999 105 119.999ZM95.3323 47.05C93.887 45.6047 92.1682 44.8821 90.176 44.8821C88.1838 44.8821 86.4456 45.5852 84.9612 46.9915L52.5002 79.5696L34.9221 61.9915C33.4377 60.5852 31.6995 59.8821 29.7073 59.8821C27.7151 59.8821 25.9963 60.6047 24.551 62.05C23.1057 63.4954 22.3831 65.2141 22.3831 67.2063C22.3831 69.1985 23.1252 70.8977 24.6096 72.304L46.0549 93.7493C46.5237 94.6086 46.8362 95.1555 46.9924 95.3899C48.4768 96.7961 50.3127 97.4602 52.5002 97.3821C54.6096 97.4602 56.4065 96.7961 57.8909 95.3899C58.0471 95.1555 58.3596 94.6086 58.8284 93.7493L95.3909 57.304C96.7971 55.8977 97.5002 54.1985 97.5002 52.2063C97.5002 50.2141 96.7776 48.4954 95.3323 47.05Z" fill="#27AE60"/>
</g>
<defs>
<clipPath id="clip0">
<rect x="0.000244141" y="-0.000732422" width="120" height="120" fill="white"/>
</clipPath>
</defs>
</svg>
