<svg width="120" height="120" viewBox="0 0 120 120" fill="none" xmlns="http://www.w3.org/2000/svg">
<path d="M60 55C66.6304 55 72.9893 57.6339 77.6777 62.3223C82.3661 67.0107 85 73.3696 85 80V110H35V80C35 73.3696 37.6339 67.0107 42.3223 62.3223C47.0107 57.6339 53.3696 55 60 55ZM26.44 70.03C25.6443 72.7139 25.1742 75.4838 25.04 78.28L25 80V110H10V87.5C9.99902 83.1879 11.5901 79.0272 14.4682 75.816C17.3462 72.6049 21.3085 70.5694 25.595 70.1L26.445 70.03H26.44ZM93.56 70.03C98.0096 70.3012 102.188 72.2598 105.243 75.5062C108.298 78.7526 109.999 83.0422 110 87.5V110H95V80C95 76.535 94.5 73.19 93.56 70.03ZM27.5 40C30.8152 40 33.9946 41.317 36.3388 43.6612C38.683 46.0054 40 49.1848 40 52.5C40 55.8152 38.683 58.9946 36.3388 61.3388C33.9946 63.683 30.8152 65 27.5 65C24.1848 65 21.0054 63.683 18.6612 61.3388C16.317 58.9946 15 55.8152 15 52.5C15 49.1848 16.317 46.0054 18.6612 43.6612C21.0054 41.317 24.1848 40 27.5 40V40ZM92.5 40C95.8152 40 98.9946 41.317 101.339 43.6612C103.683 46.0054 105 49.1848 105 52.5C105 55.8152 103.683 58.9946 101.339 61.3388C98.9946 63.683 95.8152 65 92.5 65C89.1848 65 86.0054 63.683 83.6612 61.3388C81.317 58.9946 80 55.8152 80 52.5C80 49.1848 81.317 46.0054 83.6612 43.6612C86.0054 41.317 89.1848 40 92.5 40V40ZM60 10C65.3043 10 70.3914 12.1071 74.1421 15.8579C77.8929 19.6086 80 24.6957 80 30C80 35.3043 77.8929 40.3914 74.1421 44.1421C70.3914 47.8929 65.3043 50 60 50C54.6957 50 49.6086 47.8929 45.8579 44.1421C42.1071 40.3914 40 35.3043 40 30C40 24.6957 42.1071 19.6086 45.8579 15.8579C49.6086 12.1071 54.6957 10 60 10V10Z" fill="#F2C94C"/>
</svg>
