<svg width="143" height="143" viewBox="0 0 143 143" fill="none" xmlns="http://www.w3.org/2000/svg">
<path d="M115.5 52.9998L74.5001 14.9998V58.9998H115.5V52.9998Z" fill="#EFEEEE"/>
<path d="M35.7501 11.9165C29.1959 11.9165 23.893 17.279 23.893 23.8332L23.8334 119.167C23.8334 125.721 29.1364 131.083 35.6905 131.083H107.25C113.804 131.083 119.167 125.721 119.167 119.167V52.6119C119.167 49.454 117.916 46.4153 115.651 44.2107L86.8726 15.4319C84.668 13.1678 81.6293 11.9165 78.4713 11.9165H35.7501ZM77.4584 47.6665V20.854L110.229 53.6248H83.4168C80.1397 53.6248 77.4584 50.9436 77.4584 47.6665Z" fill="#2F80ED"/>
</svg>
