<svg width="6" height="32" viewBox="0 0 6 32" fill="none" xmlns="http://www.w3.org/2000/svg">
<g clip-path="url(#clip0)">
<path fill-rule="evenodd" clip-rule="evenodd" d="M8.9407e-08 5C8.9407e-08 5.79565 0.316071 6.55871 0.87868 7.12132C1.44129 7.68393 2.20435 8 3 8C3.79565 8 4.55871 7.68393 5.12132 7.12132C5.68393 6.55871 6 5.79565 6 5C6 4.20435 5.68393 3.44129 5.12132 2.87868C4.55871 2.31607 3.79565 2 3 2C2.20435 2 1.44129 2.31607 0.87868 2.87868C0.316071 3.44129 8.9407e-08 4.20435 8.9407e-08 5V5ZM8.9407e-08 15C8.9407e-08 15.7956 0.316071 16.5587 0.87868 17.1213C1.44129 17.6839 2.20435 18 3 18C3.79565 18 4.55871 17.6839 5.12132 17.1213C5.68393 16.5587 6 15.7956 6 15C6 14.2044 5.68393 13.4413 5.12132 12.8787C4.55871 12.3161 3.79565 12 3 12C2.20435 12 1.44129 12.3161 0.87868 12.8787C0.316071 13.4413 8.9407e-08 14.2044 8.9407e-08 15V15ZM3 28C2.60603 28 2.21593 27.9224 1.85195 27.7716C1.48797 27.6209 1.15726 27.3999 0.87868 27.1213C0.600104 26.8427 0.379126 26.512 0.228361 26.1481C0.0775973 25.7841 0 25.394 0 25C0 24.606 0.0775973 24.2159 0.228361 23.8519C0.379126 23.488 0.600104 23.1573 0.87868 22.8787C1.15726 22.6001 1.48797 22.3791 1.85195 22.2284C2.21593 22.0776 2.60603 22 3 22C3.79565 22 4.55871 22.3161 5.12132 22.8787C5.68393 23.4413 6 24.2044 6 25C6 25.7956 5.68393 26.5587 5.12132 27.1213C4.55871 27.6839 3.79565 28 3 28V28Z" fill="#787878"/>
</g>
<defs>
<clipPath id="clip0">
<rect width="6" height="32" fill="white"/>
</clipPath>
</defs>
</svg>
