<svg width="220" height="210" viewBox="0 0 220 210" fill="none" xmlns="http://www.w3.org/2000/svg">
<ellipse cx="109.583" cy="189" rx="109.5" ry="21" fill="#343434" fill-opacity="0.45"/>
<path d="M107.695 17L199.082 51C199.082 92.9814 205.291 147.5 196.582 158.5C187.082 170.5 126.583 189 107.695 189C87.0825 187.428 27.2908 170 20.5825 158.5C13.8742 147 18.0824 51 18.0824 51L107.695 17Z" fill="url(#paint0_linear)"/>
<path d="M108.083 17L18.5825 51.5L108.083 82L198.083 51.5L108.083 17Z" fill="#173E72"/>
<path d="M49.0825 5V79C49.0825 81.7614 51.3211 84 54.0825 84H74.0825C76.8439 84 79.0825 81.7614 79.0825 79V46.926C79.0825 42.8195 83.7588 40.4639 87.0587 42.9082L102.945 54.6761C104.789 56.0418 107.326 55.9774 109.098 54.5197L128.906 38.2257C132.169 35.5422 137.083 37.8629 137.083 42.0872V79C137.083 81.7614 139.321 84 142.083 84H163.083C165.844 84 168.083 81.7614 168.083 79V5C168.083 2.23858 165.844 0 163.083 0H139.13C137.818 0 136.558 0.515685 135.623 1.43584L109.84 26.8036C107.797 28.8128 104.488 28.6987 102.589 26.5536L80.5749 1.68581C79.6259 0.613771 78.2628 0 76.8311 0H54.0825C51.3211 0 49.0825 2.23858 49.0825 5Z" fill="url(#paint1_linear)"/>
<path d="M108.159 82L18.0825 51C18.0825 51 -1.4177 81.5 0.0823037 89C1.5823 96.5 83.5823 127.5 92.5823 124C101.582 120.5 108.159 82 108.159 82Z" fill="#1E4F8F"/>
<path d="M108.082 82L198.159 51C198.159 51 217.659 81.5 216.159 89C214.659 96.5 132.659 127.5 123.659 124C114.659 120.5 108.082 82 108.082 82Z" fill="#1E4F8F"/>
<defs>
<linearGradient id="paint0_linear" x1="108.082" y1="111" x2="108.582" y2="189" gradientUnits="userSpaceOnUse">
<stop stop-color="#2F80ED"/>
<stop offset="1" stop-color="#1C4885"/>
</linearGradient>
<linearGradient id="paint1_linear" x1="108.583" y1="0" x2="108.583" y2="84" gradientUnits="userSpaceOnUse">
<stop stop-color="#4D30E9"/>
<stop offset="1" stop-color="#EA5657"/>
</linearGradient>
</defs>
</svg>
