<svg width="34" height="28" viewBox="0 0 34 28" fill="none" xmlns="http://www.w3.org/2000/svg">
<path d="M17 0C18.315 0 19.5762 0.712067 20.5061 1.97955C21.4359 3.24704 21.9583 4.96612 21.9583 6.75862C21.9583 8.55112 21.4359 10.2702 20.5061 11.5377C19.5762 12.8052 18.315 13.5172 17 13.5172C15.685 13.5172 14.4238 12.8052 13.4939 11.5377C12.5641 10.2702 12.0417 8.55112 12.0417 6.75862C12.0417 4.96612 12.5641 3.24704 13.4939 1.97955C14.4238 0.712067 15.685 0 17 0V0ZM7.08333 4.82759C7.87667 4.82759 8.61333 5.11724 9.25083 5.63862C9.03833 8.4 9.63333 11.1421 10.8517 13.2855C10.1433 15.1393 8.72667 16.4138 7.08333 16.4138C5.95616 16.4138 4.87516 15.8035 4.07813 14.717C3.2811 13.6306 2.83333 12.1571 2.83333 10.6207C2.83333 9.08426 3.2811 7.61076 4.07813 6.52435C4.87516 5.43793 5.95616 4.82759 7.08333 4.82759V4.82759ZM26.9167 4.82759C28.0438 4.82759 29.1248 5.43793 29.9219 6.52435C30.7189 7.61076 31.1667 9.08426 31.1667 10.6207C31.1667 12.1571 30.7189 13.6306 29.9219 14.717C29.1248 15.8035 28.0438 16.4138 26.9167 16.4138C25.2733 16.4138 23.8567 15.1393 23.1483 13.2855C24.3835 11.112 24.9568 8.37335 24.7492 5.63862C25.3867 5.11724 26.1233 4.82759 26.9167 4.82759V4.82759ZM7.79167 24.6207C7.79167 20.6234 11.9142 17.3793 17 17.3793C22.0858 17.3793 26.2083 20.6234 26.2083 24.6207V28H7.79167V24.6207ZM0 28V25.1034C0 22.4193 2.6775 20.16 6.30417 19.5034C5.46833 20.8166 4.95833 22.6317 4.95833 24.6207V28H0ZM34 28H29.0417V24.6207C29.0417 22.6317 28.5317 20.8166 27.6958 19.5034C31.3225 20.16 34 22.4193 34 25.1034V28Z" fill="#173E72"/>
</svg>
