<svg width="25" height="26" viewBox="0 0 25 26" fill="none" xmlns="http://www.w3.org/2000/svg">
<path d="M13.1579 0H2.63158C1.18421 0 0 1.11429 0 2.47619V22.2857C0 22.7933 0.157895 23.2762 0.447369 23.6724C0.539474 23.8086 0.657895 23.9324 0.776316 24.0314C1.25 24.4895 1.90789 24.7619 2.63158 24.7619H12.5395C11.8421 24.0438 11.3289 23.2143 10.9868 22.2857H2.63158V2.47619H11.8421V8.66667H18.4211V12.381C19.3421 12.381 20.2237 12.5295 21.0526 12.8019V7.42857L13.1579 0ZM18.4211 26L25 20.4286L21.0526 17.0857L18.4211 14.8571V18.5714H13.1579V22.2857H18.4211V26Z" fill="#4E8FE7"/>
</svg>
