<svg width="39" height="39" viewBox="0 0 39 39" fill="none" xmlns="http://www.w3.org/2000/svg">
<path d="M22.5 5.5H9V32.5H31.5V15L22.5 5.5Z" fill="url(#paint0_linear)"/>
<path d="M13.4339 23.855C13.1349 23.855 12.9334 23.8842 12.8294 23.9135V25.8277C12.9529 25.857 13.1073 25.8651 13.3202 25.8651C14.0985 25.8651 14.5779 25.4719 14.5779 24.8072C14.5779 24.2125 14.1652 23.855 13.4339 23.855ZM19.1003 23.8745C18.7753 23.8745 18.564 23.9037 18.4389 23.933V28.1742C18.564 28.2035 18.7655 28.2035 18.9475 28.2035C20.2752 28.2132 21.1397 27.482 21.1397 25.935C21.1494 24.5862 20.3613 23.8745 19.1003 23.8745Z" fill="#A8A8A8"/>
<path d="M22.75 3.25H9.75C8.88805 3.25 8.0614 3.59241 7.4519 4.2019C6.84241 4.8114 6.5 5.63805 6.5 6.5V32.5C6.5 33.362 6.84241 34.1886 7.4519 34.7981C8.0614 35.4076 8.88805 35.75 9.75 35.75H29.25C30.112 35.75 30.9386 35.4076 31.5481 34.7981C32.1576 34.1886 32.5 33.362 32.5 32.5V13L22.75 3.25ZM15.4342 26.3088C14.9321 26.78 14.1911 26.9913 13.3282 26.9913C13.1609 26.9931 12.9937 26.9833 12.8278 26.962V29.2792H11.375V22.8832C12.0306 22.7854 12.6931 22.7409 13.3559 22.75C14.261 22.75 14.9045 22.9223 15.3384 23.2684C15.7511 23.5966 16.0306 24.1345 16.0306 24.7682C16.029 25.4052 15.8177 25.9431 15.4342 26.3088ZM21.6206 28.5106C20.9381 29.0778 19.8997 29.3475 18.6306 29.3475C17.8701 29.3475 17.3323 29.2987 16.9666 29.25V22.8849C17.6225 22.7892 18.2847 22.7441 18.9475 22.75C20.1776 22.75 20.9771 22.971 21.6011 23.4422C22.2755 23.9427 22.698 24.7406 22.698 25.8862C22.698 27.1261 22.2446 27.9825 21.6206 28.5106ZM27.625 24.0013H25.1355V25.4816H27.4625V26.6744H25.1355V29.2809H23.6632V22.7987H27.625V24.0013ZM22.75 14.625H21.125V6.5L29.25 14.625H22.75Z" fill="#A8A8A8"/>
<defs>
<linearGradient id="paint0_linear" x1="9" y1="19" x2="30.5" y2="19" gradientUnits="userSpaceOnUse">
<stop stop-color="#2F80ED"/>
<stop offset="1" stop-color="#173E72"/>
</linearGradient>
</defs>
</svg>
