<svg width="36" height="40" viewBox="0 0 36 40" fill="none" xmlns="http://www.w3.org/2000/svg">
<path d="M21.8205 5C17.9915 5 10.1487 6.11111 9 6.11111V35H29V25.5556V13.3333L21.8205 5Z" fill="url(#paint0_linear)"/>
<path d="M22.4766 4L29.9355 12.5246V32.5C29.9355 34.7091 28.1446 36.5 25.9355 36.5H9.61292C7.40378 36.5 5.61292 34.7091 5.61292 32.5V8C5.61292 5.79086 7.40378 4 9.61292 4H22.4766ZM22.4766 13.0574H28.8004L22.4766 6.26434V13.0574ZM20.3686 31.1721V24.3791C20.3686 23.7677 20.1578 23.2243 19.7573 22.7714C19.3357 22.3412 18.8298 22.1148 18.2607 22.1148H11.9368C11.3676 22.1148 10.8617 22.3412 10.4401 22.7714C10.0396 23.2243 9.82883 23.7677 9.82883 24.3791V31.1721C9.82883 31.7835 10.0396 32.327 10.4401 32.7798C10.8617 33.21 11.3676 33.4365 11.9368 33.4365H18.2607C18.8298 33.4365 19.3357 33.21 19.7573 32.7798C20.1578 32.327 20.3686 31.7835 20.3686 31.1721ZM26.6925 33.4365V22.1148L22.4766 26.6434V28.9078L26.6925 33.4365Z" fill="#A8A8A8"/>
<defs>
<linearGradient id="paint0_linear" x1="9" y1="20.5556" x2="29.5812" y2="20.5556" gradientUnits="userSpaceOnUse">
<stop stop-color="#2F80ED"/>
<stop offset="1" stop-color="#173E72"/>
</linearGradient>
</defs>
</svg>
