<svg width="39" height="39" viewBox="0 0 39 39" fill="none" xmlns="http://www.w3.org/2000/svg">
<path d="M32.5 9.75H17.875L14.625 6.5H6.5C4.7125 6.5 3.25 7.9625 3.25 9.75V16.25H35.75V13C35.75 11.2125 34.2875 9.75 32.5 9.75Z" fill="url(#paint0_linear)"/>
<mask id="mask0" mask-type="alpha" maskUnits="userSpaceOnUse" x="3" y="9" width="33" height="24">
<path d="M32.5 9.75H6.5C4.7125 9.75 3.25 11.2125 3.25 13V29.25C3.25 31.0375 4.7125 32.5 6.5 32.5H32.5C34.2875 32.5 35.75 31.0375 35.75 29.25V13C35.75 11.2125 34.2875 9.75 32.5 9.75Z" fill="#A8A8A8"/>
</mask>
<g mask="url(#mask0)">
<path d="M32.5 9.75H6.5C4.7125 9.75 3.25 11.2125 3.25 13V29.25C3.25 31.0375 4.7125 32.5 6.5 32.5H32.5C34.2875 32.5 35.75 31.0375 35.75 29.25V13C35.75 11.2125 34.2875 9.75 32.5 9.75Z" fill="#A8A8A8"/>
<path d="M23 16H26V18H23V16Z" fill="url(#paint1_linear)"/>
<path d="M26 14H29V16H26V14Z" fill="url(#paint2_linear)"/>
<path d="M23 12H26V14H23V12Z" fill="url(#paint3_linear)"/>
<path d="M26 10H29V12H26V10Z" fill="url(#paint4_linear)"/>
<path d="M23 8H26V10H23V8Z" fill="url(#paint5_linear)"/>
<path d="M26 18H29V20H26V18Z" fill="url(#paint6_linear)"/>
<path d="M23 20H26V22H23V20Z" fill="url(#paint7_linear)"/>
<path d="M27.8 22H24.2L23 29H29L27.8 22Z" fill="url(#paint8_linear)"/>
<path d="M27.5 28L27 25H25L24.5 28H27.5Z" fill="#A8A8A8"/>
</g>
<defs>
<linearGradient id="paint0_linear" x1="3" y1="8.5" x2="20" y2="8.5" gradientUnits="userSpaceOnUse">
<stop stop-color="#2F80ED"/>
<stop offset="1" stop-color="#1C4885"/>
</linearGradient>
<linearGradient id="paint1_linear" x1="23" y1="17" x2="26" y2="17" gradientUnits="userSpaceOnUse">
<stop stop-color="#2F80ED"/>
<stop offset="1" stop-color="#163B6C"/>
</linearGradient>
<linearGradient id="paint2_linear" x1="26" y1="15" x2="29" y2="15" gradientUnits="userSpaceOnUse">
<stop stop-color="#2F80ED"/>
<stop offset="1" stop-color="#163B6C"/>
</linearGradient>
<linearGradient id="paint3_linear" x1="23" y1="13" x2="26" y2="13" gradientUnits="userSpaceOnUse">
<stop stop-color="#2F80ED"/>
<stop offset="1" stop-color="#163B6C"/>
</linearGradient>
<linearGradient id="paint4_linear" x1="26" y1="11" x2="29" y2="11" gradientUnits="userSpaceOnUse">
<stop stop-color="#2F80ED"/>
<stop offset="1" stop-color="#163B6C"/>
</linearGradient>
<linearGradient id="paint5_linear" x1="23" y1="9" x2="26" y2="9" gradientUnits="userSpaceOnUse">
<stop stop-color="#2F80ED"/>
<stop offset="1" stop-color="#163B6C"/>
</linearGradient>
<linearGradient id="paint6_linear" x1="26" y1="19" x2="29" y2="19" gradientUnits="userSpaceOnUse">
<stop stop-color="#2F80ED"/>
<stop offset="1" stop-color="#1B447B"/>
</linearGradient>
<linearGradient id="paint7_linear" x1="23" y1="21" x2="26" y2="21" gradientUnits="userSpaceOnUse">
<stop stop-color="#2F80ED"/>
<stop offset="1" stop-color="#11376A"/>
</linearGradient>
<linearGradient id="paint8_linear" x1="23" y1="24.8" x2="29" y2="24.8" gradientUnits="userSpaceOnUse">
<stop stop-color="#2F80ED"/>
<stop offset="1" stop-color="#1B457E"/>
</linearGradient>
</defs>
</svg>
